<?xml version="1.0" encoding="UTF-8" standalone="no"?>
<!-- Created with Inkscape (http://www.inkscape.org/) -->

<svg
   width="291.96851pt"
   height="243.77953pt"
   viewBox="0 0 291.96851 243.77953"
   version="1.1"
   id="svg20354"
   xmlns="http://www.w3.org/2000/svg"
   xmlns:svg="http://www.w3.org/2000/svg">
  <defs
     id="defs20351" />
  <g
     id="layer1">
    <path
       id="rect28350"
       style="display:inline;fill:#ffffff;fill-opacity:1;stroke:none;stroke-width:0.747888;stroke-miterlimit:2;stroke-dasharray:none;stroke-opacity:1"
       d="M 11.345215 0.37353516 C 5.2668311 0.37353516 0.37353516 5.2655221 0.37353516 11.34082 L 0.37353516 232.43994 C 0.37353516 238.51524 5.2668311 243.40576 11.345215 243.40576 L 280.62305 243.40576 C 286.70143 243.40576 291.59473 238.51524 291.59473 232.43994 L 291.59473 11.34082 C 291.59473 5.2655221 286.70143 0.37353516 280.62305 0.37353516 L 11.345215 0.37353516 z M 144.47754 14.802246 L 147.49072 14.802246 A 4.5 4.5 0 0 1 151.99072 19.302246 L 151.99072 20.39502 A 0.75 0.75 0 0 0 152.74072 21.14502 L 159.6167 21.14502 A 4.5 4.5 0 0 1 164.1167 25.64502 L 164.1167 25.980469 A 4.5 4.5 0 0 1 159.6167 30.480469 L 132.35303 30.480469 A 4.5 4.5 0 0 1 127.85303 25.980469 L 127.85303 25.64502 A 4.5 4.5 0 0 1 132.35303 21.14502 L 139.22754 21.14502 A 0.75 0.75 0 0 0 139.97754 20.39502 L 139.97754 19.302246 A 4.5 4.5 0 0 1 144.47754 14.802246 z " />
  </g>
</svg>
